<svg xmlns="http://www.w3.org/2000/svg" style="display: none;">
  <!-- Target/Scanner Icon -->
  <symbol id="icon-target" viewBox="0 0 24 24">
    <circle cx="12" cy="12" r="10" fill="none" stroke="currentColor" stroke-width="2"/>
    <circle cx="12" cy="12" r="6" fill="none" stroke="currentColor" stroke-width="2"/>
    <circle cx="12" cy="12" r="2" fill="currentColor"/>
    <path d="M12 2v4M12 18v4M2 12h4M18 12h4" stroke="currentColor" stroke-width="2"/>
  </symbol>

  <!-- Document/Clipboard Icon -->
  <symbol id="icon-clipboard" viewBox="0 0 24 24">
    <rect x="8" y="2" width="8" height="4" rx="1" ry="1" stroke="currentColor" stroke-width="2" fill="none"/>
    <path d="M16 4h2a2 2 0 0 1 2 2v14a2 2 0 0 1-2 2H6a2 2 0 0 1-2-2V6a2 2 0 0 1 2-2h2" stroke="currentColor" stroke-width="2" fill="none"/>
    <polyline points="9,11 12,14 17,9" stroke="currentColor" stroke-width="2" fill="none"/>
  </symbol>

  <!-- Graduate Cap/Academy Icon -->
  <symbol id="icon-graduate" viewBox="0 0 24 24">
    <path d="M12 3L1 9l11 6 9-4.91V17h2V9L12 3z" stroke="currentColor" stroke-width="2" fill="none"/>
    <path d="M5 13.18v4L12 21l7-3.82v-4" stroke="currentColor" stroke-width="2" fill="none"/>
  </symbol>

  <!-- Crystal Ball/Foresight Icon -->
  <symbol id="icon-crystal" viewBox="0 0 24 24">
    <circle cx="12" cy="12" r="9" fill="none" stroke="currentColor" stroke-width="2"/>
    <path d="M12 3c-2.5 0-4.5 2-4.5 4.5S9.5 12 12 12s4.5-2 4.5-4.5S14.5 3 12 3z" fill="currentColor"/>
    <path d="M8 16l1.5-1.5M16 16l-1.5-1.5M12 19v2M5 22h14" stroke="currentColor" stroke-width="2"/>
  </symbol>

  <!-- Lightbulb/Culture Icon -->
  <symbol id="icon-lightbulb" viewBox="0 0 24 24">
    <path d="M9 21h6M12 3a6 6 0 0 0-6 6c0 3.7 2.5 6.9 6 8.2a6 6 0 0 0 6-8.2 6 6 0 0 0-6-6z" stroke="currentColor" stroke-width="2" fill="none"/>
    <path d="M12 9v3M12 15h.01" stroke="currentColor" stroke-width="2"/>
  </symbol>

  <!-- Handshake/Partnership Icon -->
  <symbol id="icon-handshake" viewBox="0 0 24 24">
    <path d="M11 12h2a2 2 0 1 0 0-4h-3c-.6 0-1.1.2-1.4.6L3 14" stroke="currentColor" stroke-width="2" fill="none"/>
    <path d="M8 12h1a2 2 0 1 1 0 4H8" stroke="currentColor" stroke-width="2" fill="none"/>
    <path d="M17 11v3c0 .55-.45 1-1 1h-2l-3-3 3-3h2c.55 0 1 .45 1 1z" stroke="currentColor" stroke-width="2" fill="none"/>
    <path d="M12 9l3 3-3 3" stroke="currentColor" stroke-width="2" fill="none"/>
  </symbol>

  <!-- Money/Dollar Icon -->
  <symbol id="icon-dollar" viewBox="0 0 24 24">
    <path d="M12 2v20M17 5H9.5a3.5 3.5 0 0 0 0 7h5a3.5 3.5 0 0 1 0 7H6" stroke="currentColor" stroke-width="2" fill="none"/>
  </symbol>

  <!-- Search/Discovery Icon -->
  <symbol id="icon-search" viewBox="0 0 24 24">
    <circle cx="11" cy="11" r="8" fill="none" stroke="currentColor" stroke-width="2"/>
    <path d="m21 21-4.35-4.35" stroke="currentColor" stroke-width="2"/>
  </symbol>

  <!-- Lightning/Speed Icon -->
  <symbol id="icon-lightning" viewBox="0 0 24 24">
    <path d="M13 2L3 14h9l-1 8 10-12h-9l1-8z" fill="currentColor"/>
  </symbol>

  <!-- Trending Up Icon -->
  <symbol id="icon-trending" viewBox="0 0 24 24">
    <polyline points="23,6 13.5,15.5 8.5,10.5 1,18" stroke="currentColor" stroke-width="2" fill="none"/>
    <polyline points="17,6 23,6 23,12" stroke="currentColor" stroke-width="2" fill="none"/>
  </symbol>

  <!-- Eye/Vision Icon -->
  <symbol id="icon-eye" viewBox="0 0 24 24">
    <path d="M1 12s4-8 11-8 11 8 11 8-4 8-11 8-11-8-11-8z" stroke="currentColor" stroke-width="2" fill="none"/>
    <circle cx="12" cy="12" r="3" stroke="currentColor" stroke-width="2" fill="none"/>
  </symbol>

  <!-- Trophy/Success Icon -->
  <symbol id="icon-trophy" viewBox="0 0 24 24">
    <path d="M6 9H4.5a2.5 2.5 0 0 1 0-5H6M18 9h1.5a2.5 2.5 0 0 0 0-5H18" stroke="currentColor" stroke-width="2" fill="none"/>
    <path d="M6 9h12l-1 7H7L6 9z" stroke="currentColor" stroke-width="2" fill="none"/>
    <path d="M12 22v-6" stroke="currentColor" stroke-width="2"/>
    <path d="M8 22h8" stroke="currentColor" stroke-width="2"/>
  </symbol>

  <!-- Lock/Security Icon -->
  <symbol id="icon-lock" viewBox="0 0 24 24">
    <rect x="3" y="11" width="18" height="11" rx="2" ry="2" stroke="currentColor" stroke-width="2" fill="none"/>
    <circle cx="12" cy="16" r="1" fill="currentColor"/>
    <path d="M7 11V7a5 5 0 0 1 10 0v4" stroke="currentColor" stroke-width="2" fill="none"/>
  </symbol>

  <!-- Palette/Brand Icon -->
  <symbol id="icon-palette" viewBox="0 0 24 24">
    <path d="M12 2C6.48 2 2 6.48 2 12s4.48 10 10 10c1.1 0 2-.9 2-2 0-.55-.22-1.05-.59-1.41-.36-.36-.86-.59-1.41-.59H8c-2.21 0-4-1.79-4-4 0-5.52 4.48-10 10-10s10 4.48 10 10c0 1.1-.9 2-2 2h-1c-1.1 0-2-.9-2-2 0-.55-.45-1-1-1s-1 .45-1 1c0 2.21 1.79 4 4 4h1c3.31 0 6-2.69 6-6 0-6.63-5.37-12-12-12z" fill="currentColor"/>
    <circle cx="6.5" cy="11.5" r="1.5" fill="white"/>
    <circle cx="9.5" cy="7.5" r="1.5" fill="white"/>
    <circle cx="14.5" cy="7.5" r="1.5" fill="white"/>
    <circle cx="17.5" cy="11.5" r="1.5" fill="white"/>
  </symbol>

  <!-- Rocket/Performance Icon -->
  <symbol id="icon-rocket" viewBox="0 0 24 24">
    <path d="M4.5 16.5c-1.5 1.26-2 5-2 5s3.74-.5 5-2c.71-.84.7-2.13-.09-2.91a2.18 2.18 0 0 0-2.91-.09z" stroke="currentColor" stroke-width="2" fill="none"/>
    <path d="M12 15l-3-3a22 22 0 0 1 2-3.95A12.88 12.88 0 0 1 22 2c0 2.72-.78 7.5-6 11a22.35 22.35 0 0 1-4 2z" stroke="currentColor" stroke-width="2" fill="none"/>
    <path d="M9 12H4s.55-3.03 2-4c1.62-1.08 5 0 5 0M15 15v5s3.03-.55 4-2c1.08-1.62 0-5 0-5" stroke="currentColor" stroke-width="2" fill="none"/>
  </symbol>

  <!-- Shield/Protection Icon -->
  <symbol id="icon-shield" viewBox="0 0 24 24">
    <path d="M12 22s8-4 8-10V5l-8-3-8 3v7c0 6 8 10 8 10z" stroke="currentColor" stroke-width="2" fill="none"/>
    <path d="M9 12l2 2 4-4" stroke="currentColor" stroke-width="2" fill="none"/>
  </symbol>

  <!-- Globe/Coverage Icon -->
  <symbol id="icon-globe" viewBox="0 0 24 24">
    <circle cx="12" cy="12" r="10" stroke="currentColor" stroke-width="2" fill="none"/>
    <line x1="2" y1="12" x2="22" y2="12" stroke="currentColor" stroke-width="2"/>
    <path d="M12 2a15.3 15.3 0 0 1 4 10 15.3 15.3 0 0 1-4 10 15.3 15.3 0 0 1-4-10 15.3 15.3 0 0 1 4-10z" stroke="currentColor" stroke-width="2" fill="none"/>
  </symbol>

  <!-- CUSTOM PRODUCT CARD ICONS -->
  
  <!-- SLEDScan - Advanced Radar/Scanner Icon -->
  <symbol id="icon-sledscan" viewBox="0 0 24 24">
    <circle cx="12" cy="12" r="10" stroke="currentColor" stroke-width="1.5" fill="none"/>
    <circle cx="12" cy="12" r="6" stroke="currentColor" stroke-width="1.5" fill="none"/>
    <circle cx="12" cy="12" r="2" fill="currentColor"/>
    <!-- Radar sweep line -->
    <path d="M12 2L12 12L18 8" stroke="currentColor" stroke-width="2" fill="none"/>
    <!-- Government building silhouette -->
    <rect x="8" y="16" width="8" height="6" fill="currentColor" opacity="0.3"/>
    <rect x="10" y="14" width="4" height="2" fill="currentColor" opacity="0.3"/>
    <!-- Scan lines -->
    <path d="M4 4L8 8M20 4L16 8M4 20L8 16M20 20L16 16" stroke="currentColor" stroke-width="1" opacity="0.5"/>
  </symbol>

  <!-- ProcurePro - Advanced Compliance Shield -->
  <symbol id="icon-procurepro" viewBox="0 0 24 24">
    <path d="M12 2L3 7v5c0 5.55 3.84 10.74 9 12 5.16-1.26 9-6.45 9-12V7l-9-5z" stroke="currentColor" stroke-width="1.5" fill="none"/>
    <!-- Checkmark in center -->
    <path d="M9 12l2 2 4-4" stroke="currentColor" stroke-width="2" fill="none"/>
    <!-- Document lines -->
    <path d="M7 15h10M7 17h8M7 19h6" stroke="currentColor" stroke-width="1" opacity="0.6"/>
    <!-- Gavel/law symbol -->
    <circle cx="16" cy="8" r="2" stroke="currentColor" stroke-width="1" fill="currentColor" opacity="0.3"/>
  </symbol>

  <!-- AiVA Academy - Modern Learning Platform -->
  <symbol id="icon-aiva-academy" viewBox="0 0 24 24">
    <!-- Graduation cap base -->
    <path d="M2 7l10-4 10 4-10 4-10-4z" stroke="currentColor" stroke-width="1.5" fill="currentColor" opacity="0.2"/>
    <!-- Cap top -->
    <path d="M6 10v4c0 2.21 2.69 4 6 4s6-1.79 6-4v-4" stroke="currentColor" stroke-width="1.5" fill="none"/>
    <!-- AI brain pattern -->
    <circle cx="12" cy="9" r="1.5" fill="currentColor"/>
    <path d="M10 7h4M10 11h4M8 9h8" stroke="currentColor" stroke-width="0.5" opacity="0.6"/>
    <!-- Tassel -->
    <path d="M17 7v3l2-1" stroke="currentColor" stroke-width="1.5" fill="none"/>
    <!-- Knowledge rays -->
    <path d="M12 3v2M6 6l1.5 1.5M18 6l-1.5 1.5" stroke="currentColor" stroke-width="1" opacity="0.4"/>
  </symbol>

  <!-- AI Market Foresight - Crystal Ball with Data Streams -->
  <symbol id="icon-market-foresight" viewBox="0 0 24 24">
    <!-- Crystal ball -->
    <circle cx="12" cy="10" r="6" stroke="currentColor" stroke-width="1.5" fill="none"/>
    <!-- Inner vision/data -->
    <path d="M9 8c0-2 1.5-3 3-3s3 1 3 3c0 1.5-1 2.5-3 2.5S9 9.5 9 8z" fill="currentColor" opacity="0.3"/>
    <!-- Base stand -->
    <ellipse cx="12" cy="17" rx="4" ry="1.5" stroke="currentColor" stroke-width="1.5" fill="none"/>
    <path d="M8 17v1c0 .5.5 1 1 1h6c.5 0 1-.5 1-1v-1" stroke="currentColor" stroke-width="1.5" fill="none"/>
    <!-- Data streams/predictions -->
    <path d="M4 12c2-1 3-2 4-1M20 12c-2-1-3-2-4-1M6 6c1 1 2 0 3 1M18 6c-1 1-2 0-3 1" stroke="currentColor" stroke-width="1" opacity="0.5"/>
    <!-- Trend lines -->
    <path d="M2 20h20M3 19l2-1 2 1 2-1 2 1 2-1 2 1 2-1 2 1" stroke="currentColor" stroke-width="0.5" opacity="0.4"/>
  </symbol>

  <!-- Culture Pulse - Team Network/Heartbeat -->
  <symbol id="icon-culture-pulse" viewBox="0 0 24 24">
    <!-- People network -->
    <circle cx="8" cy="8" r="2" stroke="currentColor" stroke-width="1.5" fill="currentColor" opacity="0.3"/>
    <circle cx="16" cy="8" r="2" stroke="currentColor" stroke-width="1.5" fill="currentColor" opacity="0.3"/>
    <circle cx="12" cy="16" r="2" stroke="currentColor" stroke-width="1.5" fill="currentColor" opacity="0.3"/>
    <!-- Connection lines -->
    <path d="M8 8l4 8M16 8l-4 8M8 8h8" stroke="currentColor" stroke-width="1" opacity="0.6"/>
    <!-- Pulse/heartbeat line -->
    <path d="M2 12h3l2-4 2 8 2-8 2 4h3l2-2" stroke="currentColor" stroke-width="2" fill="none"/>
    <!-- Sentiment indicators -->
    <circle cx="6" cy="4" r="1" fill="currentColor" opacity="0.4"/>
    <circle cx="18" cy="4" r="1" fill="currentColor" opacity="0.4"/>
    <circle cx="12" cy="20" r="1" fill="currentColor" opacity="0.4"/>
  </symbol>

  <!-- AI Opportunity Matchmaker - Connection Hub -->
  <symbol id="icon-matchmaker" viewBox="0 0 24 24">
    <!-- Central hub -->
    <circle cx="12" cy="12" r="3" stroke="currentColor" stroke-width="1.5" fill="currentColor" opacity="0.2"/>
    <!-- Connecting nodes -->
    <circle cx="5" cy="5" r="2" stroke="currentColor" stroke-width="1.5" fill="none"/>
    <circle cx="19" cy="5" r="2" stroke="currentColor" stroke-width="1.5" fill="none"/>
    <circle cx="5" cy="19" r="2" stroke="currentColor" stroke-width="1.5" fill="none"/>
    <circle cx="19" cy="19" r="2" stroke="currentColor" stroke-width="1.5" fill="none"/>
    <!-- Connection lines with arrows -->
    <path d="M7 7l3 3M17 7l-3 3M7 17l3-3M17 17l-3-3" stroke="currentColor" stroke-width="1.5" fill="none"/>
    <!-- Handshake symbol in center -->
    <path d="M10 11h4" stroke="currentColor" stroke-width="1.5" fill="none"/>
    <path d="M9 12h6" stroke="currentColor" stroke-width="1" opacity="0.6"/>
    <!-- Partnership indicators -->
    <path d="M5 3v4M19 3v4M5 17v4M19 17v4" stroke="currentColor" stroke-width="0.5" opacity="0.4"/>
  </symbol>

  <!-- Grant Navigator - Funding Flow/Treasure Map -->
  <symbol id="icon-grant-navigator" viewBox="0 0 24 24">
    <!-- Treasure map base -->
    <rect x="3" y="4" width="18" height="16" rx="2" stroke="currentColor" stroke-width="1.5" fill="none"/>
    <!-- Map content -->
    <path d="M6 8h12M6 12h8M6 16h10" stroke="currentColor" stroke-width="0.5" opacity="0.3"/>
    <!-- Treasure/funding location -->
    <circle cx="15" cy="10" r="2" stroke="currentColor" stroke-width="1.5" fill="currentColor" opacity="0.4"/>
    <text x="15" y="11" text-anchor="middle" font-size="8" font-weight="bold">$</text>
    <!-- Navigation path -->
    <path d="M8 14c2-1 4-2 7-4" stroke="currentColor" stroke-width="2" fill="none" stroke-dasharray="2,2" opacity="0.6"/>
    <!-- Compass rose -->
    <path d="M18 6l1-1 1 1-1 1-1-1M17 5h4M19 3v4" stroke="currentColor" stroke-width="0.5" opacity="0.5"/>
    <!-- Funding streams -->
    <path d="M5 2v2M12 2v2M19 2v2" stroke="currentColor" stroke-width="1" opacity="0.4"/>
    <circle cx="5" cy="1" r="0.5" fill="currentColor" opacity="0.6"/>
    <circle cx="12" cy="1" r="0.5" fill="currentColor" opacity="0.6"/>
    <circle cx="19" cy="1" r="0.5" fill="currentColor" opacity="0.6"/>
  </symbol>
</svg>